%TF.GenerationSoftware,KiCad,Pcbnew,10.0.3*%
%TF.CreationDate,2026-05-26T11:53:44-04:00*%
%TF.ProjectId,Silver_v4_1,53696c76-6572-45f7-9634-5f312e6b6963,rev?*%
%TF.SameCoordinates,Original*%
%TF.FileFunction,Copper,L1,Top*%
%TF.FilePolarity,Positive*%
%FSLAX46Y46*%
G04 Gerber Fmt 4.6, Leading zero omitted, Abs format (unit mm)*
G04 Created by KiCad (PCBNEW 10.0.3) date 2026-05-26 11:53:44*
%MOMM*%
%LPD*%
G01*
G04 APERTURE LIST*
G04 Aperture macros list*
%AMRoundRect*
0 Rectangle with rounded corners*
0 $1 Rounding radius*
0 $2 $3 $4 $5 $6 $7 $8 $9 X,Y pos of 4 corners*
0 Add a 4 corners polygon primitive as box body*
4,1,4,$2,$3,$4,$5,$6,$7,$8,$9,$2,$3,0*
0 Add four circle primitives for the rounded corners*
1,1,$1+$1,$2,$3*
1,1,$1+$1,$4,$5*
1,1,$1+$1,$6,$7*
1,1,$1+$1,$8,$9*
0 Add four rect primitives between the rounded corners*
20,1,$1+$1,$2,$3,$4,$5,0*
20,1,$1+$1,$4,$5,$6,$7,0*
20,1,$1+$1,$6,$7,$8,$9,0*
20,1,$1+$1,$8,$9,$2,$3,0*%
G04 Aperture macros list end*
%TA.AperFunction,SMDPad,CuDef*%
%ADD10RoundRect,1.800000X7.200000X-4.200000X7.200000X4.200000X-7.200000X4.200000X-7.200000X-4.200000X0*%
%TD*%
%TA.AperFunction,ViaPad*%
%ADD11C,0.600000*%
%TD*%
%TA.AperFunction,Conductor*%
%ADD12C,2.000000*%
%TD*%
G04 APERTURE END LIST*
D10*
%TO.P,REF\u002A\u002A,1*%
%TO.N,N/C*%
X138000000Y-121000000D03*
%TD*%
%TO.P,,1*%
%TO.N,N/C*%
X112000000Y-121000000D03*
%TD*%
D11*
%TO.N,*%
X102000000Y-52000000D03*
X148000000Y-128000000D03*
%TD*%
%TO.N,*%
D12*
X103000000Y-112000000D02*
X103000000Y-55000000D01*
X103000000Y-55000000D02*
X107000000Y-55000000D01*
X123000000Y-109000000D02*
X127000000Y-109000000D01*
X107000000Y-55000000D02*
X107000000Y-109000000D01*
X107000000Y-109000000D02*
X111000000Y-109000000D01*
X147000000Y-55000000D02*
X147000000Y-112000000D01*
X131000000Y-55000000D02*
X131000000Y-109000000D01*
X139000000Y-55000000D02*
X139000000Y-109000000D01*
X112000000Y-121000000D02*
X103000000Y-112000000D01*
X111000000Y-55000000D02*
X115000000Y-55000000D01*
X119000000Y-55000000D02*
X123000000Y-55000000D01*
X119000000Y-109000000D02*
X119000000Y-55000000D01*
X123000000Y-55000000D02*
X123000000Y-109000000D01*
X127000000Y-109000000D02*
X127000000Y-55000000D01*
X127000000Y-55000000D02*
X131000000Y-55000000D01*
X135000000Y-109000000D02*
X135000000Y-55000000D01*
X131000000Y-109000000D02*
X135000000Y-109000000D01*
X115000000Y-55000000D02*
X115000000Y-109000000D01*
X115000000Y-109000000D02*
X119000000Y-109000000D01*
X135000000Y-55000000D02*
X139000000Y-55000000D01*
X111000000Y-109000000D02*
X111000000Y-55000000D01*
X139000000Y-109000000D02*
X143000000Y-109000000D01*
X143000000Y-109000000D02*
X143000000Y-55000000D01*
X143000000Y-55000000D02*
X147000000Y-55000000D01*
X147000000Y-112000000D02*
X138000000Y-121000000D01*
X135000000Y-121000000D02*
X146000000Y-121000000D01*
X104000000Y-121000000D02*
X114000000Y-121000000D01*
%TD*%
M02*
