%TF.GenerationSoftware,KiCad,Pcbnew,10.0.1*%
%TF.CreationDate,2026-06-09T14:17:31-04:00*%
%TF.ProjectId,Silver2_v4_1,53696c76-6572-4325-9f76-345f312e6b69,rev?*%
%TF.SameCoordinates,Original*%
%TF.FileFunction,Copper,L1,Top*%
%TF.FilePolarity,Positive*%
%FSLAX46Y46*%
G04 Gerber Fmt 4.6, Leading zero omitted, Abs format (unit mm)*
G04 Created by KiCad (PCBNEW 10.0.1) date 2026-06-09 14:17:31*
%MOMM*%
%LPD*%
G01*
G04 APERTURE LIST*
%TA.AperFunction,SMDPad,CuDef*%
%ADD10R,15.000000X10.000000*%
%TD*%
%TA.AperFunction,Conductor*%
%ADD11C,1.000000*%
%TD*%
G04 APERTURE END LIST*
D10*
%TO.P,REF\u002A\u002A,1*%
%TO.N,N/C*%
X135000000Y-123000000D03*
%TD*%
%TO.P,REF\u002A\u002A,1*%
%TO.N,N/C*%
X115000000Y-123000000D03*
%TD*%
%TO.N,*%
D11*
X147000000Y-124000000D02*
X147000000Y-53000000D01*
X141000000Y-112000000D02*
X141000000Y-53000000D01*
X144000000Y-112000000D02*
X141000000Y-112000000D01*
X138000000Y-112000000D02*
X135000000Y-112000000D01*
X126000000Y-112000000D02*
X123000000Y-112000000D01*
X120000000Y-112000000D02*
X117000000Y-112000000D01*
X141000000Y-53000000D02*
X138000000Y-53000000D01*
X114000000Y-53000000D02*
X114000000Y-112000000D01*
X102000000Y-124000000D02*
X122000000Y-124000000D01*
X147000000Y-53000000D02*
X144000000Y-53000000D01*
X138000000Y-53000000D02*
X138000000Y-112000000D01*
X135000000Y-53000000D02*
X132000000Y-53000000D01*
X132000000Y-112000000D02*
X129000000Y-112000000D01*
X120000000Y-53000000D02*
X120000000Y-112000000D01*
X135000000Y-112000000D02*
X135000000Y-53000000D01*
X144000000Y-53000000D02*
X144000000Y-112000000D01*
X117000000Y-53000000D02*
X114000000Y-53000000D01*
X117000000Y-112000000D02*
X117000000Y-53000000D01*
X129000000Y-124000000D02*
X147000000Y-124000000D01*
X105000000Y-53000000D02*
X102000000Y-53000000D01*
X126000000Y-53000000D02*
X126000000Y-112000000D01*
X102000000Y-53000000D02*
X102000000Y-124000000D01*
X114000000Y-112000000D02*
X111000000Y-112000000D01*
X123000000Y-112000000D02*
X123000000Y-53000000D01*
X105000000Y-112000000D02*
X105000000Y-53000000D01*
X123000000Y-53000000D02*
X120000000Y-53000000D01*
X132000000Y-53000000D02*
X132000000Y-112000000D01*
X108000000Y-53000000D02*
X108000000Y-112000000D01*
X129000000Y-112000000D02*
X129000000Y-53000000D01*
X129000000Y-53000000D02*
X126000000Y-53000000D01*
X108000000Y-112000000D02*
X105000000Y-112000000D01*
X111000000Y-112000000D02*
X111000000Y-53000000D01*
X111000000Y-53000000D02*
X108000000Y-53000000D01*
%TD*%
M02*
